<svg width="64" height="64" viewBox="0 0 64 64" fill="none" xmlns="http://www.w3.org/2000/svg">
  <!-- Head silhouette - maximizes the space -->
  <path 
    d="M62 31C62 48 49 59 32 59C20 59 12 54 6 47C0 38 1 31 1 31C1 14 14 3 31 3C48 3 62 14 62 31Z" 
    fill="#7e22ce" 
  />
  
  <!-- Neural network - scaled to fill the head -->
  <circle cx="32" cy="13" r="5" fill="#d8b4fe" />
  <circle cx="23" cy="25" r="5" fill="#d8b4fe" />
  <circle cx="41" cy="25" r="5" fill="#d8b4fe" />
  <circle cx="32" cy="37" r="5" fill="#d8b4fe" />
  
  <!-- Connections -->
  <line x1="32" y1="13" x2="23" y2="25" stroke="#d8b4fe" stroke-width="2" />
  <line x1="32" y1="13" x2="41" y2="25" stroke="#d8b4fe" stroke-width="2" />
  <line x1="23" y1="25" x2="32" y2="37" stroke="#d8b4fe" stroke-width="2" />
  <line x1="41" y1="25" x2="32" y2="37" stroke="#d8b4fe" stroke-width="2" />
</svg> 