<svg width="200" height="200" viewBox="0 0 200 200" fill="none" xmlns="http://www.w3.org/2000/svg">
  <!-- Head silhouette -->
  <path 
    d="M195 100C195 150.5 155.5 190 105 190C77.3858 190 54 178.5 40 160V160C20 135 15 100 15 100C15 49.5 54.5 10 105 10C155.5 10 195 49.5 195 100Z" 
    fill="#7e22ce" 
  />
  
  <!-- Neural network -->
  <circle cx="105" cy="40" r="15" fill="#d8b4fe" />
  <circle cx="75" cy="80" r="15" fill="#d8b4fe" />
  <circle cx="135" cy="80" r="15" fill="#d8b4fe" />
  <circle cx="105" cy="120" r="15" fill="#d8b4fe" />
  
  <!-- Connections -->
  <line x1="105" y1="40" x2="75" y2="80" stroke="#d8b4fe" stroke-width="6" />
  <line x1="105" y1="40" x2="135" y2="80" stroke="#d8b4fe" stroke-width="6" />
  <line x1="75" y1="80" x2="105" y2="120" stroke="#d8b4fe" stroke-width="6" />
  <line x1="135" y1="80" x2="105" y2="120" stroke="#d8b4fe" stroke-width="6" />
  
  <!-- Add theme color adaptation -->
  <style>
    @media (prefers-color-scheme: dark) {
      path { fill: #6b21a8; }
      circle { fill: #8b5cf6; }
      line { stroke: #8b5cf6; }
    }
    @media (prefers-color-scheme: light) {
      path { fill: #8b5cf6; }
      circle { fill: #7e22ce; }
      line { stroke: #7e22ce; }
    }
  </style>
</svg> 