<svg xmlns="http://www.w3.org/2000/svg" width="32" height="32" viewBox="0 0 32 32" fill="none">
  <!-- Solid background for better visibility -->
  <rect width="32" height="32" rx="4" fill="#9333EA" />
  
  <!-- Simplified head outline -->
  <path d="M26 16C26 21.5 21.5 26 16 26C12 26 9 24 7 21C5 18 5 16 5 16C5 10.5 10 6 16 6C22 6 26 10.5 26 16Z" fill="#A855F7" />
  
  <!-- Simplified neural network - larger nodes -->
  <circle cx="16" cy="10" r="3" fill="#FFFFFF" />
  <circle cx="11" cy="16" r="3" fill="#FFFFFF" />
  <circle cx="21" cy="16" r="3" fill="#FFFFFF" />
  <circle cx="16" cy="22" r="3" fill="#FFFFFF" />
  
  <!-- Thicker connections for better visibility -->
  <line x1="16" y1="10" x2="11" y2="16" stroke="#FFFFFF" stroke-width="2" />
  <line x1="16" y1="10" x2="21" y2="16" stroke="#FFFFFF" stroke-width="2" />
  <line x1="11" y1="16" x2="16" y2="22" stroke="#FFFFFF" stroke-width="2" />
  <line x1="21" y1="16" x2="16" y2="22" stroke="#FFFFFF" stroke-width="2" />
</svg> 